<svg xmlns="http://www.w3.org/2000/svg" viewBox="0 0 512 512" width="512" height="512">
  <defs>
    <linearGradient id="bg" x1="0" y1="0" x2="1" y2="1">
      <stop offset="0" stop-color="#0a1f3c"/>
      <stop offset="1" stop-color="#1d4a86"/>
    </linearGradient>
  </defs>
  <rect width="512" height="512" rx="104" fill="url(#bg)"/>
  <!-- chevron (rank / Air Force) -->
  <path d="M256 96 L150 196 L196 196 L256 142 L316 196 L362 196 Z" fill="#c8a24a"/>
  <path d="M256 168 L168 250 L206 250 L256 204 L306 250 L344 250 Z" fill="#e7d6a8"/>
  <!-- upward growth bars + arrow -->
  <g>
    <rect x="156" y="338" width="40" height="62" rx="8" fill="#2bb6a6"/>
    <rect x="236" y="312" width="40" height="88" rx="8" fill="#2bb6a6"/>
    <rect x="316" y="280" width="40" height="120" rx="8" fill="#2bb6a6"/>
    <path d="M150 372 L236 330 L296 352 L372 268" fill="none" stroke="#ffffff" stroke-width="14" stroke-linecap="round" stroke-linejoin="round"/>
    <path d="M340 262 L378 258 L368 296 Z" fill="#ffffff"/>
  </g>
</svg>
